<svg width="38" height="24" viewBox="0 0 38 24" fill="none" xmlns="http://www.w3.org/2000/svg">
<path d="M25.7143 10.2857C28.56 10.2857 30.84 7.98857 30.84 5.14286C30.84 2.29714 28.56 0 25.7143 0C22.8686 0 20.5714 2.29714 20.5714 5.14286C20.5714 7.98857 22.8686 10.2857 25.7143 10.2857ZM12 10.2857C14.8457 10.2857 17.1257 7.98857 17.1257 5.14286C17.1257 2.29714 14.8457 0 12 0C9.15429 0 6.85714 2.29714 6.85714 5.14286C6.85714 7.98857 9.15429 10.2857 12 10.2857ZM12 13.7143C8.00571 13.7143 0 15.72 0 19.7143V24H24V19.7143C24 15.72 15.9943 13.7143 12 13.7143ZM25.7143 13.7143C25.2171 13.7143 24.6514 13.7486 24.0514 13.8C26.04 15.24 27.4286 17.1771 27.4286 19.7143V24H37.7143V19.7143C37.7143 15.72 29.7086 13.7143 25.7143 13.7143Z" fill="white"/>
</svg>
