<svg width="24" height="24" viewBox="0 0 24 24" fill="none" xmlns="http://www.w3.org/2000/svg">
<path d="M20.5975 13.175C20.6475 12.8 20.6725 12.4125 20.6725 12C20.6725 11.6 20.6475 11.2 20.585 10.825L23.1225 8.85C23.3475 8.675 23.41 8.3375 23.2725 8.0875L20.8725 3.9375C20.7225 3.6625 20.41 3.575 20.135 3.6625L17.1475 4.8625C16.5225 4.3875 15.86 3.9875 15.1225 3.6875L14.6725 0.5125C14.6225 0.2125 14.3725 0 14.0725 0H9.2725C8.9725 0 8.735 0.2125 8.685 0.5125L8.235 3.6875C7.4975 3.9875 6.8225 4.4 6.21 4.8625L3.2225 3.6625C2.9475 3.5625 2.635 3.6625 2.485 3.9375L0.0975004 8.0875C-0.0524996 8.35 -0.00249971 8.675 0.2475 8.85L2.785 10.825C2.7225 11.2 2.6725 11.6125 2.6725 12C2.6725 12.3875 2.6975 12.8 2.76 13.175L0.2225 15.15C-0.00249969 15.325 -0.0649995 15.6625 0.0725004 15.9125L2.4725 20.0625C2.6225 20.3375 2.935 20.425 3.21 20.3375L6.1975 19.1375C6.8225 19.6125 7.485 20.0125 8.2225 20.3125L8.6725 23.4875C8.735 23.7875 8.9725 24 9.2725 24H14.0725C14.3725 24 14.6225 23.7875 14.66 23.4875L15.11 20.3125C15.8475 20.0125 16.5225 19.6125 17.135 19.1375L20.1225 20.3375C20.3975 20.4375 20.71 20.3375 20.86 20.0625L23.26 15.9125C23.41 15.6375 23.3475 15.325 23.11 15.15L20.5975 13.175ZM11.6725 16.5C9.1975 16.5 7.1725 14.475 7.1725 12C7.1725 9.525 9.1975 7.5 11.6725 7.5C14.1475 7.5 16.1725 9.525 16.1725 12C16.1725 14.475 14.1475 16.5 11.6725 16.5Z" fill="white"/>
</svg>
