<svg width="22" height="24" viewBox="0 0 22 24" fill="none" xmlns="http://www.w3.org/2000/svg">
<path d="M18.3355 16.9639C17.4198 16.9639 16.6005 17.3253 15.974 17.8916L7.38367 12.8916C7.44391 12.6145 7.4921 12.3373 7.4921 12.0482C7.4921 11.759 7.44391 11.4819 7.38367 11.2048L15.8776 6.25301C16.5282 6.85542 17.3837 7.22892 18.3355 7.22892C20.3355 7.22892 21.9499 5.61446 21.9499 3.61446C21.9499 1.61446 20.3355 0 18.3355 0C16.3355 0 14.721 1.61446 14.721 3.61446C14.721 3.90361 14.7692 4.18072 14.8294 4.45783L6.33547 9.40964C5.68487 8.80723 4.82945 8.43373 3.87764 8.43373C1.87764 8.43373 0.263184 10.0482 0.263184 12.0482C0.263184 14.0482 1.87764 15.6627 3.87764 15.6627C4.82945 15.6627 5.68487 15.2892 6.33547 14.6867L14.9138 19.6988C14.8535 19.9518 14.8174 20.2169 14.8174 20.4819C14.8174 22.4217 16.3957 24 18.3355 24C20.2752 24 21.8535 22.4217 21.8535 20.4819C21.8535 18.5422 20.2752 16.9639 18.3355 16.9639Z" fill="black"/>
</svg>
