<svg width="24" height="24" viewBox="0 0 24 24" fill="none" xmlns="http://www.w3.org/2000/svg">
<path d="M12 0C5.376 0 0 5.376 0 12C0 18.624 5.376 24 12 24C18.624 24 24 18.624 24 12C24 5.376 18.624 0 12 0ZM20.952 8.544L17.616 9.924C17.004 8.292 15.72 6.996 14.076 6.396L15.456 3.06C17.976 4.02 19.98 6.024 20.952 8.544ZM12 15.6C10.008 15.6 8.4 13.992 8.4 12C8.4 10.008 10.008 8.4 12 8.4C13.992 8.4 15.6 10.008 15.6 12C15.6 13.992 13.992 15.6 12 15.6ZM8.556 3.048L9.96 6.384C8.304 6.984 6.996 8.292 6.384 9.948L3.048 8.556C4.02 6.024 6.024 4.02 8.556 3.048ZM3.048 15.444L6.384 14.064C6.996 15.72 8.292 17.016 9.948 17.616L8.544 20.952C6.024 19.98 4.02 17.976 3.048 15.444ZM15.456 20.952L14.076 17.616C15.72 17.004 17.016 15.708 17.616 14.052L20.952 15.456C19.98 17.976 17.976 19.98 15.456 20.952Z" fill="white"/>
</svg>
